<svg width="44" height="42" viewBox="0 0 44 42" fill="none" xmlns="http://www.w3.org/2000/svg">
<path d="M38.5582 16.2832C37.2105 16.2832 36.0246 16.8402 35.1531 17.7117C31.9457 15.4925 27.6242 14.064 22.8355 13.9113L25.3242 2.69878L33.2484 4.47769C33.2484 6.41831 34.8297 7.99956 36.7703 7.99956C38.7469 7.99956 40.3371 6.37339 40.3371 4.43276C40.3371 2.49214 38.7559 0.865967 36.7703 0.865967C35.3867 0.865967 34.1918 1.70151 33.5988 2.84253L24.848 0.901904C24.4078 0.785107 23.9766 1.09956 23.8598 1.5398L21.1285 13.9023C16.3758 14.1 12.0992 15.5285 8.8828 17.7476C8.01132 16.8402 6.78046 16.2832 5.4328 16.2832C0.43749 16.2832 -1.19767 22.9855 3.37538 25.2765C3.21366 25.9863 3.14179 26.741 3.14179 27.4957C3.14179 35.0246 11.623 41.125 22.0359 41.125C32.4937 41.125 40.975 35.0246 40.975 27.4957C40.975 26.741 40.8941 25.9503 40.6965 25.2406C45.1797 22.9406 43.5266 16.2832 38.5582 16.2832V16.2832ZM10.6258 25.7527C10.6258 23.7761 12.207 22.1859 14.1926 22.1859C16.1332 22.1859 17.7144 23.7671 17.7144 25.7527C17.7144 27.6933 16.1332 29.2746 14.1926 29.2746C12.216 29.2835 10.6258 27.6933 10.6258 25.7527V25.7527ZM29.8793 34.1531C26.609 37.4234 17.382 37.4234 14.1117 34.1531C13.7523 33.8386 13.7523 33.2816 14.1117 32.9222C14.4262 32.6078 14.9832 32.6078 15.2976 32.9222C17.7953 35.4828 26.0789 35.5277 28.6844 32.9222C28.9988 32.6078 29.5559 32.6078 29.8703 32.9222C30.2387 33.2816 30.2387 33.8386 29.8793 34.1531ZM29.8074 29.2835C27.8668 29.2835 26.2855 27.7023 26.2855 25.7617C26.2855 23.7851 27.8668 22.1949 29.8074 22.1949C31.784 22.1949 33.3742 23.7761 33.3742 25.7617C33.3652 27.6933 31.784 29.2835 29.8074 29.2835Z" fill="#2F2F2F"/>
</svg>
