<svg width="49" height="49" viewBox="0 0 49 49" fill="none" xmlns="http://www.w3.org/2000/svg">
<circle cx="24.5" cy="24.5" r="24.5" fill="#DADADA"/>
<g clip-path="url(#clip0_19_10)">
<path d="M7.67748 22.8668L16.9275 13.6168C17.8308 12.7135 19.2942 12.7135 20.1975 13.6168C21.1008 14.5201 21.1008 15.9835 20.1975 16.8868L14.8986 22.1875L41.6875 22.1875C42.9659 22.1875 44 23.2216 44 24.5C44 25.7784 42.9659 26.8125 41.6875 26.8125L14.8986 26.8125L20.2015 32.1154C21.1048 33.0187 21.1048 34.4821 20.2015 35.3854C19.2989 36.288 17.8355 36.2894 16.9315 35.3854L7.68146 26.1354C6.77416 25.2299 6.77416 23.7701 7.67748 22.8668Z" fill="white"/>
</g>
<defs>
<clipPath id="clip0_19_10">
<rect width="37" height="37" fill="white" transform="translate(7 6)"/>
</clipPath>
</defs>
</svg>
