<svg width="43" height="38" viewBox="0 0 43 38" fill="none" xmlns="http://www.w3.org/2000/svg">
<path d="M0 13.0325V12.5454C0 6.6749 4.24289 1.66775 10.0277 0.703613C13.7818 0.0661716 17.7543 1.31418 20.4922 4.05627L21.5 5.0624L22.4322 4.05627C25.2457 1.31418 29.1426 0.0661716 32.9723 0.703613C38.7588 1.66775 43 6.6749 43 12.5454V13.0325C43 16.5179 41.5555 19.8521 39.0023 22.2288L23.8264 36.397C23.1965 36.9849 22.365 37.3124 21.5 37.3124C20.635 37.3124 19.8035 36.9849 19.1736 36.397L3.99682 22.2288C1.44705 19.8521 2.51953e-05 16.5179 2.51953e-05 13.0325H0Z" fill="#2F2F2F"/>
</svg>
