<svg width="49" height="49" viewBox="0 0 49 49" fill="none" xmlns="http://www.w3.org/2000/svg">
<circle cx="24.5" cy="24.5" r="24.5" fill="#DADADA"/>
<g clip-path="url(#clip0_19_11)">
<path d="M43.3225 26.1332L34.0725 35.3832C33.1692 36.2865 31.7058 36.2865 30.8025 35.3832C29.8992 34.4799 29.8992 33.0165 30.8025 32.1132L36.1014 26.8125L9.3125 26.8125C8.03413 26.8125 7 25.7784 7 24.5C7 23.2216 8.03413 22.1875 9.31251 22.1875L36.1014 22.1875L30.7985 16.8846C29.8952 15.9813 29.8952 14.5179 30.7985 13.6146C31.7011 12.712 33.1645 12.7106 34.0685 13.6146L43.3185 22.8646C44.2258 23.7701 44.2258 25.2299 43.3225 26.1332Z" fill="white"/>
</g>
<defs>
<clipPath id="clip0_19_11">
<rect width="37" height="37" fill="white" transform="translate(44 43) rotate(-180)"/>
</clipPath>
</defs>
</svg>
