<svg width="40" height="41" viewBox="0 0 40 41" fill="none" xmlns="http://www.w3.org/2000/svg">
<path d="M19.1826 9.19763L13.3391 11.6211V1.71248L8.58261 18.0664L13.3391 15.9867V27.1844L19.1826 9.19763ZM11.9478 0.887476L11.8348 1.29138L10.513 5.83748C7.0087 7.16951 4.52174 10.5297 4.52174 14.457C4.52174 18.9516 7.50435 22.6984 11.7739 23.5234V28.1297C5 27.2274 0 21.4094 0 14.4656C0 7.54763 5.2 1.8156 11.9478 0.887476ZM39.0261 39.3188C38.0522 40.2813 37.0174 40.3758 36.5391 40.2211C36.0696 40.0664 34.1826 38.5109 31.287 36.4055C28.3913 34.2914 28.3652 33.3375 27.5478 31.5328C26.7304 29.7367 24.9043 27.8719 22.5478 27.0297L21.7043 25.7664C19.5565 27.2188 17.0957 28.0781 14.6348 28.2328L14.8174 27.6656L16.2 23.4117C20.2435 22.3891 23.2348 18.7711 23.2348 14.457C23.2348 9.77341 19.8957 5.68279 14.887 5.2531V0.775757C22.1217 1.21404 27.8261 7.1781 27.8261 14.4656C27.8261 17.3531 26.8522 20.0258 25.3043 22.2344L26.5739 23.0594C27.4261 25.3883 29.313 27.1844 31.1304 27.9922C32.9478 28.8 33.9304 28.8258 36.0696 31.6875C38.2087 34.5406 39.7826 36.4055 39.9391 36.8695C40.0957 37.3336 40 38.3563 39.0261 39.3188ZM38.1652 37.7805C38.1652 37.4024 37.8522 37.093 37.4696 37.093C37.087 37.093 36.7739 37.4024 36.7739 37.7805C36.7739 38.1586 37.087 38.468 37.4696 38.468C37.8522 38.468 38.1652 38.1586 38.1652 37.7805Z" fill="#2F2F2F"/>
</svg>
